<mxfile host="Electron" modified="2023-04-07T04:40:33.762Z" agent="Mozilla/5.0 (Windows NT 10.0; Win64; x64) AppleWebKit/537.36 (KHTML, like Gecko) draw.io/21.1.2 Chrome/106.0.5249.199 Electron/21.4.3 Safari/537.36" etag="J46Nor0rppVJhMX3hfUr" version="21.1.2" type="device">
  <diagram name="Page-1" id="7e0a89b8-554c-2b80-1dc8-d5c74ca68de4">
    <mxGraphModel dx="973" dy="654" grid="1" gridSize="10" guides="1" tooltips="1" connect="1" arrows="0" fold="1" page="1" pageScale="1" pageWidth="1100" pageHeight="850" background="none" math="0" shadow="0">
      <root>
        <mxCell id="0" />
        <mxCell id="1" parent="0" />
        <mxCell id="_KS72kJeJMdXlC_sL613-5" value="Outputs (1,2)" style="rounded=1;whiteSpace=wrap;html=1;fontSize=8;dashed=1;glass=0;fillColor=none;labelPosition=center;verticalLabelPosition=top;align=center;verticalAlign=bottom;" vertex="1" parent="1">
          <mxGeometry x="390" y="90" width="70" height="80" as="geometry" />
        </mxCell>
        <mxCell id="Fr98qobzcK0LU_zISkJZ-132" value="Connector" style="rounded=1;whiteSpace=wrap;html=1;fontSize=8;dashed=1;glass=0;fillColor=none;labelPosition=center;verticalLabelPosition=top;align=center;verticalAlign=bottom;" parent="1" vertex="1">
          <mxGeometry x="590" y="410" width="450" height="260" as="geometry" />
        </mxCell>
        <mxCell id="Fr98qobzcK0LU_zISkJZ-106" value="Relay" style="rounded=1;whiteSpace=wrap;html=1;fontSize=8;dashed=1;glass=0;fillColor=none;labelPosition=center;verticalLabelPosition=top;align=center;verticalAlign=bottom;" parent="1" vertex="1">
          <mxGeometry x="60" y="410" width="420" height="350" as="geometry" />
        </mxCell>
        <mxCell id="Fr98qobzcK0LU_zISkJZ-83" value="PIC Microcontroller" style="rounded=1;whiteSpace=wrap;html=1;fontSize=8;dashed=1;glass=0;fillColor=none;labelPosition=center;verticalLabelPosition=top;align=center;verticalAlign=bottom;" parent="1" vertex="1">
          <mxGeometry x="590" y="59.5" width="470" height="240" as="geometry" />
        </mxCell>
        <mxCell id="-t0vQ1nds_EjjODqD0fe-3" value="Input" style="rounded=1;whiteSpace=wrap;html=1;fontSize=8;dashed=1;glass=0;fillColor=none;labelPosition=center;verticalLabelPosition=top;align=center;verticalAlign=bottom;" parent="1" vertex="1">
          <mxGeometry x="40" y="100" width="80" height="80" as="geometry" />
        </mxCell>
        <mxCell id="bEVudagYUYadB0FIOIkS-55" value="" style="group" parent="1" vertex="1" connectable="0">
          <mxGeometry x="240" y="240" width="80" height="40" as="geometry" />
        </mxCell>
        <mxCell id="P3dWpHHCQvJ4_OjeLRg7-33" value="" style="group" parent="bEVudagYUYadB0FIOIkS-55" vertex="1" connectable="0">
          <mxGeometry width="80" height="40" as="geometry" />
        </mxCell>
        <mxCell id="bEVudagYUYadB0FIOIkS-50" value="&lt;p style=&quot;font-size: 10px; text-align: start; margin: 0px;&quot;&gt;LDO&lt;/p&gt;" style="rounded=0;whiteSpace=wrap;html=1;fontSize=10;" parent="P3dWpHHCQvJ4_OjeLRg7-33" vertex="1">
          <mxGeometry width="80" height="40" as="geometry" />
        </mxCell>
        <mxCell id="bEVudagYUYadB0FIOIkS-52" value="IN" style="text;html=1;strokeColor=none;fillColor=none;align=left;verticalAlign=middle;whiteSpace=wrap;rounded=0;fontSize=8;" parent="P3dWpHHCQvJ4_OjeLRg7-33" vertex="1">
          <mxGeometry y="15" width="20" height="10" as="geometry" />
        </mxCell>
        <mxCell id="bEVudagYUYadB0FIOIkS-53" value="GND" style="text;html=1;strokeColor=none;fillColor=none;align=center;verticalAlign=middle;whiteSpace=wrap;rounded=0;fontSize=8;" parent="P3dWpHHCQvJ4_OjeLRg7-33" vertex="1">
          <mxGeometry x="30" y="30" width="20" height="10" as="geometry" />
        </mxCell>
        <mxCell id="bEVudagYUYadB0FIOIkS-54" value="OUT" style="text;html=1;strokeColor=none;fillColor=none;align=right;verticalAlign=middle;whiteSpace=wrap;rounded=0;fontSize=8;" parent="P3dWpHHCQvJ4_OjeLRg7-33" vertex="1">
          <mxGeometry x="60" y="15" width="20" height="10" as="geometry" />
        </mxCell>
        <mxCell id="bEVudagYUYadB0FIOIkS-290" style="edgeStyle=none;rounded=0;jumpSize=5;orthogonalLoop=1;jettySize=auto;html=1;exitX=0.5;exitY=0;exitDx=0;exitDy=0;exitPerimeter=0;entryX=0;entryY=0.5;entryDx=0;entryDy=0;entryPerimeter=0;labelBackgroundColor=none;fontSize=6;fontColor=#000000;endArrow=none;endFill=0;" parent="1" edge="1">
          <mxGeometry relative="1" as="geometry">
            <mxPoint x="500" y="190" as="targetPoint" />
          </mxGeometry>
        </mxCell>
        <mxCell id="bEVudagYUYadB0FIOIkS-296" style="edgeStyle=none;rounded=0;jumpSize=5;orthogonalLoop=1;jettySize=auto;html=1;labelBackgroundColor=none;fontSize=6;fontColor=#000000;endArrow=none;endFill=0;entryX=0;entryY=0.23;entryDx=0;entryDy=0;exitX=0;exitY=0.5;exitDx=0;exitDy=0;exitPerimeter=0;" parent="1" target="Fr98qobzcK0LU_zISkJZ-12" edge="1" source="_KS72kJeJMdXlC_sL613-3">
          <mxGeometry relative="1" as="geometry">
            <mxPoint x="230" y="120" as="targetPoint" />
            <Array as="points" />
            <mxPoint x="70" y="130" as="sourcePoint" />
          </mxGeometry>
        </mxCell>
        <mxCell id="-t0vQ1nds_EjjODqD0fe-2" style="edgeStyle=none;rounded=0;jumpSize=5;orthogonalLoop=1;jettySize=auto;html=1;labelBackgroundColor=none;fontSize=6;fontColor=#000000;endArrow=none;endFill=0;entryX=0;entryY=0.79;entryDx=0;entryDy=0;" parent="1" target="Fr98qobzcK0LU_zISkJZ-12" edge="1">
          <mxGeometry relative="1" as="geometry">
            <mxPoint x="250" y="150.39" as="targetPoint" />
            <Array as="points">
              <mxPoint x="80" y="152" />
            </Array>
            <mxPoint x="80" y="151" as="sourcePoint" />
          </mxGeometry>
        </mxCell>
        <mxCell id="Fr98qobzcK0LU_zISkJZ-1" value="" style="pointerEvents=1;fillColor=strokeColor;verticalLabelPosition=bottom;shadow=0;dashed=0;align=center;html=1;verticalAlign=top;shape=mxgraph.electrical.diodes.diode;direction=east;rotation=-225;flipH=1;flipV=0;" parent="1" vertex="1">
          <mxGeometry x="181" y="131" width="16" height="6" as="geometry" />
        </mxCell>
        <mxCell id="Fr98qobzcK0LU_zISkJZ-4" value="" style="pointerEvents=1;fillColor=strokeColor;verticalLabelPosition=bottom;shadow=0;dashed=0;align=center;html=1;verticalAlign=top;shape=mxgraph.electrical.diodes.diode;direction=east;rotation=-135;flipH=1;flipV=0;" parent="1" vertex="1">
          <mxGeometry x="181" y="143" width="16" height="6" as="geometry" />
        </mxCell>
        <mxCell id="Fr98qobzcK0LU_zISkJZ-5" value="" style="pointerEvents=1;fillColor=strokeColor;verticalLabelPosition=bottom;shadow=0;dashed=0;align=center;html=1;verticalAlign=top;shape=mxgraph.electrical.diodes.diode;direction=east;rotation=-135;flipH=1;flipV=0;" parent="1" vertex="1">
          <mxGeometry x="193" y="131" width="16" height="6" as="geometry" />
        </mxCell>
        <mxCell id="Fr98qobzcK0LU_zISkJZ-6" value="" style="pointerEvents=1;fillColor=strokeColor;verticalLabelPosition=bottom;shadow=0;dashed=0;align=center;html=1;verticalAlign=top;shape=mxgraph.electrical.diodes.diode;direction=east;rotation=-225;flipH=1;flipV=0;" parent="1" vertex="1">
          <mxGeometry x="193" y="143" width="16" height="6" as="geometry" />
        </mxCell>
        <mxCell id="Fr98qobzcK0LU_zISkJZ-7" style="edgeStyle=none;rounded=0;orthogonalLoop=1;jettySize=auto;html=1;exitX=0.25;exitY=0;exitDx=0;exitDy=0;fontSize=10;endArrow=none;endFill=0;" parent="1" edge="1">
          <mxGeometry relative="1" as="geometry">
            <mxPoint x="220" y="220" as="targetPoint" />
            <mxPoint x="220" y="260" as="sourcePoint" />
          </mxGeometry>
        </mxCell>
        <mxCell id="Fr98qobzcK0LU_zISkJZ-8" style="edgeStyle=none;rounded=0;orthogonalLoop=1;jettySize=auto;html=1;exitX=1;exitY=0.5;exitDx=0;exitDy=0;fontSize=10;endArrow=none;endFill=0;entryX=0;entryY=0.5;entryDx=0;entryDy=0;entryPerimeter=0;exitPerimeter=0;" parent="1" source="Fr98qobzcK0LU_zISkJZ-1" target="Fr98qobzcK0LU_zISkJZ-5" edge="1">
          <mxGeometry relative="1" as="geometry">
            <mxPoint x="253" y="130" as="targetPoint" />
            <mxPoint x="253" y="170" as="sourcePoint" />
          </mxGeometry>
        </mxCell>
        <mxCell id="Fr98qobzcK0LU_zISkJZ-12" value="" style="pointerEvents=1;verticalLabelPosition=bottom;shadow=0;dashed=0;align=center;html=1;verticalAlign=top;shape=mxgraph.electrical.electro-mechanical.dpdt3;elSwitchState=1;" parent="1" vertex="1">
          <mxGeometry x="260" y="119" width="40" height="41" as="geometry" />
        </mxCell>
        <mxCell id="Fr98qobzcK0LU_zISkJZ-18" style="edgeStyle=none;rounded=0;orthogonalLoop=1;jettySize=auto;html=1;exitX=0;exitY=0.5;exitDx=0;exitDy=0;fontSize=10;endArrow=none;endFill=0;entryX=1;entryY=0.61;entryDx=0;entryDy=0;exitPerimeter=0;" parent="1" source="_KS72kJeJMdXlC_sL613-6" target="Fr98qobzcK0LU_zISkJZ-12" edge="1">
          <mxGeometry relative="1" as="geometry">
            <mxPoint x="245.77" y="191" as="targetPoint" />
            <mxPoint x="380" y="161" as="sourcePoint" />
            <Array as="points">
              <mxPoint x="380" y="144" />
            </Array>
          </mxGeometry>
        </mxCell>
        <mxCell id="Fr98qobzcK0LU_zISkJZ-19" style="edgeStyle=none;rounded=0;orthogonalLoop=1;jettySize=auto;html=1;exitX=0;exitY=0.5;exitDx=0;exitDy=0;fontSize=10;endArrow=none;endFill=0;entryX=1;entryY=0.05;entryDx=0;entryDy=0;exitPerimeter=0;" parent="1" source="_KS72kJeJMdXlC_sL613-7" target="Fr98qobzcK0LU_zISkJZ-12" edge="1">
          <mxGeometry relative="1" as="geometry">
            <mxPoint x="300" y="154" as="targetPoint" />
            <mxPoint x="380" y="110.50000000000011" as="sourcePoint" />
            <Array as="points">
              <mxPoint x="380" y="120" />
            </Array>
          </mxGeometry>
        </mxCell>
        <mxCell id="Fr98qobzcK0LU_zISkJZ-22" style="edgeStyle=none;rounded=0;orthogonalLoop=1;jettySize=auto;html=1;fontSize=10;endArrow=none;endFill=0;exitX=0.027;exitY=0.519;exitDx=0;exitDy=0;exitPerimeter=0;" parent="1" edge="1">
          <mxGeometry relative="1" as="geometry">
            <mxPoint x="206" y="140" as="targetPoint" />
            <mxPoint x="219.92400000000004" y="190.81" as="sourcePoint" />
            <Array as="points">
              <mxPoint x="220" y="140" />
            </Array>
          </mxGeometry>
        </mxCell>
        <mxCell id="Fr98qobzcK0LU_zISkJZ-23" style="edgeStyle=none;rounded=0;orthogonalLoop=1;jettySize=auto;html=1;fontSize=10;endArrow=none;endFill=0;" parent="1" edge="1">
          <mxGeometry relative="1" as="geometry">
            <mxPoint x="183" y="140" as="targetPoint" />
            <mxPoint x="170" y="310" as="sourcePoint" />
            <Array as="points">
              <mxPoint x="170" y="140" />
            </Array>
          </mxGeometry>
        </mxCell>
        <mxCell id="Fr98qobzcK0LU_zISkJZ-24" value="2.2 uF" style="pointerEvents=1;verticalLabelPosition=bottom;shadow=0;dashed=0;align=center;html=1;verticalAlign=middle;shape=mxgraph.electrical.capacitors.capacitor_1;fontSize=10;labelPosition=center;direction=west;spacing=2;" parent="1" vertex="1">
          <mxGeometry x="180" y="175" width="30" height="10" as="geometry" />
        </mxCell>
        <mxCell id="Fr98qobzcK0LU_zISkJZ-26" value="" style="pointerEvents=1;verticalLabelPosition=bottom;shadow=0;dashed=0;align=center;html=1;verticalAlign=top;shape=mxgraph.electrical.inductors.inductor_3;direction=south;" parent="1" vertex="1">
          <mxGeometry x="220" y="190" width="6" height="30" as="geometry" />
        </mxCell>
        <mxCell id="Fr98qobzcK0LU_zISkJZ-27" value="2.2 uF" style="pointerEvents=1;verticalLabelPosition=top;shadow=0;dashed=0;align=center;html=1;verticalAlign=bottom;shape=mxgraph.electrical.capacitors.capacitor_1;fontSize=10;labelPosition=center;direction=west;spacing=2;spacingTop=0;spacingBottom=-4;" parent="1" vertex="1">
          <mxGeometry x="180" y="225" width="30" height="10" as="geometry" />
        </mxCell>
        <mxCell id="Fr98qobzcK0LU_zISkJZ-28" style="edgeStyle=none;rounded=0;orthogonalLoop=1;jettySize=auto;html=1;exitX=0;exitY=0.5;exitDx=0;exitDy=0;fontSize=10;endArrow=none;endFill=0;exitPerimeter=0;" parent="1" source="Fr98qobzcK0LU_zISkJZ-24" edge="1">
          <mxGeometry relative="1" as="geometry">
            <mxPoint x="220" y="180" as="targetPoint" />
            <mxPoint x="245.77" y="231" as="sourcePoint" />
          </mxGeometry>
        </mxCell>
        <mxCell id="Fr98qobzcK0LU_zISkJZ-29" style="edgeStyle=none;rounded=0;orthogonalLoop=1;jettySize=auto;html=1;exitX=0;exitY=0.5;exitDx=0;exitDy=0;fontSize=10;endArrow=none;endFill=0;exitPerimeter=0;" parent="1" edge="1">
          <mxGeometry relative="1" as="geometry">
            <mxPoint x="180" y="180" as="targetPoint" />
            <mxPoint x="170" y="180" as="sourcePoint" />
          </mxGeometry>
        </mxCell>
        <mxCell id="Fr98qobzcK0LU_zISkJZ-30" style="edgeStyle=none;rounded=0;orthogonalLoop=1;jettySize=auto;html=1;exitX=0;exitY=0.5;exitDx=0;exitDy=0;fontSize=10;endArrow=none;endFill=0;exitPerimeter=0;" parent="1" edge="1">
          <mxGeometry relative="1" as="geometry">
            <mxPoint x="220" y="230" as="targetPoint" />
            <mxPoint x="210" y="230" as="sourcePoint" />
          </mxGeometry>
        </mxCell>
        <mxCell id="Fr98qobzcK0LU_zISkJZ-31" style="edgeStyle=none;rounded=0;orthogonalLoop=1;jettySize=auto;html=1;exitX=0;exitY=0.5;exitDx=0;exitDy=0;fontSize=10;endArrow=none;endFill=0;exitPerimeter=0;" parent="1" edge="1">
          <mxGeometry relative="1" as="geometry">
            <mxPoint x="180" y="230" as="targetPoint" />
            <mxPoint x="170" y="230" as="sourcePoint" />
          </mxGeometry>
        </mxCell>
        <mxCell id="Fr98qobzcK0LU_zISkJZ-33" style="edgeStyle=none;rounded=0;orthogonalLoop=1;jettySize=auto;html=1;fontSize=10;endArrow=none;endFill=0;entryX=0;entryY=0.5;entryDx=0;entryDy=0;" parent="1" target="bEVudagYUYadB0FIOIkS-52" edge="1">
          <mxGeometry relative="1" as="geometry">
            <mxPoint x="230" y="240" as="targetPoint" />
            <mxPoint x="220" y="260" as="sourcePoint" />
          </mxGeometry>
        </mxCell>
        <mxCell id="Fr98qobzcK0LU_zISkJZ-34" style="edgeStyle=none;rounded=0;orthogonalLoop=1;jettySize=auto;html=1;fontSize=10;endArrow=none;endFill=0;entryX=0.5;entryY=1;entryDx=0;entryDy=0;" parent="1" target="bEVudagYUYadB0FIOIkS-53" edge="1">
          <mxGeometry relative="1" as="geometry">
            <mxPoint x="280" y="290" as="targetPoint" />
            <mxPoint x="170" y="310" as="sourcePoint" />
            <Array as="points">
              <mxPoint x="280" y="310" />
            </Array>
          </mxGeometry>
        </mxCell>
        <mxCell id="Fr98qobzcK0LU_zISkJZ-35" style="edgeStyle=none;rounded=0;orthogonalLoop=1;jettySize=auto;html=1;fontSize=10;endArrow=none;endFill=0;entryX=0.5;entryY=0;entryDx=0;entryDy=0;entryPerimeter=0;" parent="1" target="Fr98qobzcK0LU_zISkJZ-36" edge="1">
          <mxGeometry relative="1" as="geometry">
            <mxPoint x="280" y="320" as="targetPoint" />
            <mxPoint x="280" y="310" as="sourcePoint" />
          </mxGeometry>
        </mxCell>
        <mxCell id="Fr98qobzcK0LU_zISkJZ-36" value="" style="pointerEvents=1;verticalLabelPosition=bottom;shadow=0;dashed=0;align=center;html=1;verticalAlign=top;shape=mxgraph.electrical.signal_sources.protective_earth;" parent="1" vertex="1">
          <mxGeometry x="270" y="330" width="20" height="20" as="geometry" />
        </mxCell>
        <mxCell id="Fr98qobzcK0LU_zISkJZ-38" value="5V" style="verticalLabelPosition=top;verticalAlign=bottom;shape=mxgraph.electrical.signal_sources.vdd;shadow=0;dashed=0;align=center;strokeWidth=1;fontSize=10;html=1;flipV=1;glass=0;fontColor=#000000;fillColor=none;" parent="1" vertex="1">
          <mxGeometry x="340" y="230" width="20" height="20" as="geometry" />
        </mxCell>
        <mxCell id="Fr98qobzcK0LU_zISkJZ-39" style="edgeStyle=none;rounded=0;orthogonalLoop=1;jettySize=auto;html=1;exitX=1;exitY=0.5;exitDx=0;exitDy=0;fontSize=10;endArrow=none;endFill=0;entryX=0.5;entryY=0;entryDx=0;entryDy=0;entryPerimeter=0;" parent="1" source="bEVudagYUYadB0FIOIkS-54" target="Fr98qobzcK0LU_zISkJZ-38" edge="1">
          <mxGeometry relative="1" as="geometry">
            <mxPoint x="230" y="240" as="targetPoint" />
            <mxPoint x="220" y="240" as="sourcePoint" />
            <Array as="points">
              <mxPoint x="350" y="260" />
            </Array>
          </mxGeometry>
        </mxCell>
        <mxCell id="4mTmVsrMNpadzmD0y_x2-2" value="IN_SWITCH" style="shape=waypoint;sketch=0;fillStyle=solid;size=6;pointerEvents=1;points=[];fillColor=none;resizable=0;rotatable=0;perimeter=centerPerimeter;snapToPoint=1;verticalAlign=middle;spacingBottom=0;spacingTop=0;fontFamily=Verdana;fontSize=12;labelPosition=left;verticalLabelPosition=middle;align=right;spacingRight=0;spacingLeft=0;spacing=-12;" parent="1" vertex="1">
          <mxGeometry x="720" y="129.5" width="40" height="40" as="geometry" />
        </mxCell>
        <mxCell id="Fr98qobzcK0LU_zISkJZ-47" value="" style="group" parent="1" vertex="1" connectable="0">
          <mxGeometry x="780" y="129.5" width="140" height="101" as="geometry" />
        </mxCell>
        <mxCell id="Fr98qobzcK0LU_zISkJZ-48" value="&lt;p style=&quot;font-size: medium; text-align: start; margin: 0px;&quot;&gt;12F1501&lt;/p&gt;" style="rounded=0;whiteSpace=wrap;html=1;fontSize=10;direction=south;spacing=2;spacingBottom=0;" parent="Fr98qobzcK0LU_zISkJZ-47" vertex="1">
          <mxGeometry width="140" height="101" as="geometry" />
        </mxCell>
        <mxCell id="Fr98qobzcK0LU_zISkJZ-49" value="RA0" style="text;html=1;strokeColor=none;fillColor=none;align=right;verticalAlign=middle;whiteSpace=wrap;rounded=0;fontSize=8;" parent="Fr98qobzcK0LU_zISkJZ-47" vertex="1">
          <mxGeometry x="110" y="10" width="30" height="20" as="geometry" />
        </mxCell>
        <mxCell id="Fr98qobzcK0LU_zISkJZ-50" value="RA1" style="text;html=1;strokeColor=none;fillColor=none;align=right;verticalAlign=middle;whiteSpace=wrap;rounded=0;fontSize=8;" parent="Fr98qobzcK0LU_zISkJZ-47" vertex="1">
          <mxGeometry x="110" y="40" width="30" height="20" as="geometry" />
        </mxCell>
        <mxCell id="Fr98qobzcK0LU_zISkJZ-51" value="RA5" style="text;html=1;strokeColor=none;fillColor=none;align=left;verticalAlign=middle;whiteSpace=wrap;rounded=0;fontSize=8;" parent="Fr98qobzcK0LU_zISkJZ-47" vertex="1">
          <mxGeometry y="10" width="30" height="20" as="geometry" />
        </mxCell>
        <mxCell id="Fr98qobzcK0LU_zISkJZ-52" value="RA4" style="text;html=1;strokeColor=none;fillColor=none;align=left;verticalAlign=middle;whiteSpace=wrap;rounded=0;fontSize=8;" parent="Fr98qobzcK0LU_zISkJZ-47" vertex="1">
          <mxGeometry y="40" width="30" height="20" as="geometry" />
        </mxCell>
        <mxCell id="Fr98qobzcK0LU_zISkJZ-53" value="RA3" style="text;html=1;strokeColor=none;fillColor=none;align=left;verticalAlign=middle;whiteSpace=wrap;rounded=0;fontSize=8;" parent="Fr98qobzcK0LU_zISkJZ-47" vertex="1">
          <mxGeometry y="70" width="30" height="20" as="geometry" />
        </mxCell>
        <mxCell id="Fr98qobzcK0LU_zISkJZ-54" value="RA2" style="text;html=1;strokeColor=none;fillColor=none;align=right;verticalAlign=middle;whiteSpace=wrap;rounded=0;fontSize=8;labelPosition=center;verticalLabelPosition=middle;" parent="Fr98qobzcK0LU_zISkJZ-47" vertex="1">
          <mxGeometry x="110" y="70" width="30" height="20" as="geometry" />
        </mxCell>
        <mxCell id="Fr98qobzcK0LU_zISkJZ-55" value="GND" style="text;html=1;strokeColor=none;fillColor=none;align=center;verticalAlign=middle;whiteSpace=wrap;rounded=0;fontSize=8;" parent="Fr98qobzcK0LU_zISkJZ-47" vertex="1">
          <mxGeometry x="55" y="90" width="30" height="11" as="geometry" />
        </mxCell>
        <mxCell id="Fr98qobzcK0LU_zISkJZ-65" value="VCC" style="text;html=1;strokeColor=none;fillColor=none;align=center;verticalAlign=middle;whiteSpace=wrap;rounded=0;fontSize=8;" parent="Fr98qobzcK0LU_zISkJZ-47" vertex="1">
          <mxGeometry x="55" width="30" height="11" as="geometry" />
        </mxCell>
        <mxCell id="Fr98qobzcK0LU_zISkJZ-67" value="" style="pointerEvents=1;verticalLabelPosition=bottom;shadow=0;dashed=0;align=center;html=1;verticalAlign=top;shape=mxgraph.electrical.signal_sources.protective_earth;" parent="1" vertex="1">
          <mxGeometry x="841" y="259.5" width="20" height="20" as="geometry" />
        </mxCell>
        <mxCell id="Fr98qobzcK0LU_zISkJZ-69" style="edgeStyle=none;rounded=0;orthogonalLoop=1;jettySize=auto;html=1;exitX=0.5;exitY=1;exitDx=0;exitDy=0;fontSize=10;endArrow=none;endFill=0;entryX=0.5;entryY=0;entryDx=0;entryDy=0;entryPerimeter=0;" parent="1" source="Fr98qobzcK0LU_zISkJZ-55" target="Fr98qobzcK0LU_zISkJZ-67" edge="1">
          <mxGeometry relative="1" as="geometry">
            <mxPoint x="880" y="-180.5" as="targetPoint" />
            <mxPoint x="880" y="-140.5" as="sourcePoint" />
          </mxGeometry>
        </mxCell>
        <mxCell id="Fr98qobzcK0LU_zISkJZ-70" value="5V" style="verticalLabelPosition=top;verticalAlign=bottom;shape=mxgraph.electrical.signal_sources.vdd;shadow=0;dashed=0;align=center;strokeWidth=1;fontSize=10;html=1;flipV=1;glass=0;fontColor=#000000;fillColor=none;" parent="1" vertex="1">
          <mxGeometry x="840" y="89.5" width="20" height="20" as="geometry" />
        </mxCell>
        <mxCell id="Fr98qobzcK0LU_zISkJZ-71" style="edgeStyle=none;rounded=0;orthogonalLoop=1;jettySize=auto;html=1;exitX=0.5;exitY=0;exitDx=0;exitDy=0;fontSize=10;endArrow=none;endFill=0;entryX=0.5;entryY=0;entryDx=0;entryDy=0;exitPerimeter=0;" parent="1" source="Fr98qobzcK0LU_zISkJZ-70" target="Fr98qobzcK0LU_zISkJZ-65" edge="1">
          <mxGeometry relative="1" as="geometry">
            <mxPoint x="861" y="269.5" as="targetPoint" />
            <mxPoint x="860" y="240.5" as="sourcePoint" />
          </mxGeometry>
        </mxCell>
        <mxCell id="Fr98qobzcK0LU_zISkJZ-72" value="OUT_ACTIVITY_LED" style="shape=waypoint;sketch=0;fillStyle=solid;size=6;pointerEvents=1;points=[];fillColor=none;resizable=0;rotatable=0;perimeter=centerPerimeter;snapToPoint=1;verticalAlign=middle;spacingBottom=0;spacingTop=0;fontFamily=Verdana;fontSize=12;labelPosition=left;verticalLabelPosition=middle;align=right;spacingRight=0;spacingLeft=0;spacing=-12;" parent="1" vertex="1">
          <mxGeometry x="720" y="160" width="40" height="40" as="geometry" />
        </mxCell>
        <mxCell id="Fr98qobzcK0LU_zISkJZ-73" value="ICSP_MCLR" style="shape=waypoint;sketch=0;fillStyle=solid;size=6;pointerEvents=1;points=[];fillColor=none;resizable=0;rotatable=0;perimeter=centerPerimeter;snapToPoint=1;verticalAlign=middle;spacingBottom=0;spacingTop=0;fontFamily=Verdana;fontSize=12;labelPosition=left;verticalLabelPosition=middle;align=right;spacingRight=0;spacingLeft=0;spacing=-12;" parent="1" vertex="1">
          <mxGeometry x="720" y="189.5" width="40" height="40" as="geometry" />
        </mxCell>
        <mxCell id="Fr98qobzcK0LU_zISkJZ-74" style="edgeStyle=none;rounded=0;orthogonalLoop=1;jettySize=auto;html=1;fontSize=10;endArrow=none;endFill=0;entryX=0;entryY=0.5;entryDx=0;entryDy=0;" parent="1" source="4mTmVsrMNpadzmD0y_x2-2" target="Fr98qobzcK0LU_zISkJZ-51" edge="1">
          <mxGeometry relative="1" as="geometry">
            <mxPoint x="860" y="139.5" as="targetPoint" />
            <mxPoint x="860" y="119.5" as="sourcePoint" />
          </mxGeometry>
        </mxCell>
        <mxCell id="Fr98qobzcK0LU_zISkJZ-75" style="edgeStyle=none;rounded=0;orthogonalLoop=1;jettySize=auto;html=1;fontSize=10;endArrow=none;endFill=0;entryX=0;entryY=0.5;entryDx=0;entryDy=0;exitX=0.437;exitY=0.469;exitDx=0;exitDy=0;exitPerimeter=0;" parent="1" source="Fr98qobzcK0LU_zISkJZ-72" target="Fr98qobzcK0LU_zISkJZ-52" edge="1">
          <mxGeometry relative="1" as="geometry">
            <mxPoint x="790" y="159.5" as="targetPoint" />
            <mxPoint x="750" y="159.5" as="sourcePoint" />
          </mxGeometry>
        </mxCell>
        <mxCell id="Fr98qobzcK0LU_zISkJZ-76" style="edgeStyle=none;rounded=0;orthogonalLoop=1;jettySize=auto;html=1;fontSize=10;endArrow=none;endFill=0;entryX=0;entryY=0.5;entryDx=0;entryDy=0;exitX=0.563;exitY=0.485;exitDx=0;exitDy=0;exitPerimeter=0;" parent="1" source="Fr98qobzcK0LU_zISkJZ-73" target="Fr98qobzcK0LU_zISkJZ-53" edge="1">
          <mxGeometry relative="1" as="geometry">
            <mxPoint x="790" y="189.5" as="targetPoint" />
            <mxPoint x="750" y="190.5" as="sourcePoint" />
          </mxGeometry>
        </mxCell>
        <mxCell id="Fr98qobzcK0LU_zISkJZ-77" value="ICSP_DAT" style="shape=waypoint;sketch=0;fillStyle=solid;size=6;pointerEvents=1;points=[];fillColor=none;resizable=0;rotatable=0;perimeter=centerPerimeter;snapToPoint=1;verticalAlign=middle;spacingBottom=0;spacingTop=0;fontFamily=Verdana;fontSize=12;labelPosition=right;verticalLabelPosition=middle;align=left;spacingRight=0;spacingLeft=0;spacing=-12;" parent="1" vertex="1">
          <mxGeometry x="940" y="129.5" width="40" height="40" as="geometry" />
        </mxCell>
        <mxCell id="Fr98qobzcK0LU_zISkJZ-78" value="ICSP_CLK" style="shape=waypoint;sketch=0;fillStyle=solid;size=6;pointerEvents=1;points=[];fillColor=none;resizable=0;rotatable=0;perimeter=centerPerimeter;snapToPoint=1;verticalAlign=middle;spacingBottom=0;spacingTop=0;fontFamily=Verdana;fontSize=12;labelPosition=right;verticalLabelPosition=middle;align=left;spacingRight=0;spacingLeft=0;spacing=-12;" parent="1" vertex="1">
          <mxGeometry x="940" y="160" width="40" height="40" as="geometry" />
        </mxCell>
        <mxCell id="Fr98qobzcK0LU_zISkJZ-79" value="OUT_RELAY" style="shape=waypoint;sketch=0;fillStyle=solid;size=6;pointerEvents=1;points=[];fillColor=none;resizable=0;rotatable=0;perimeter=centerPerimeter;snapToPoint=1;verticalAlign=middle;spacingBottom=0;spacingTop=0;fontFamily=Verdana;fontSize=12;labelPosition=right;verticalLabelPosition=middle;align=left;spacingRight=0;spacingLeft=0;spacing=-12;" parent="1" vertex="1">
          <mxGeometry x="940" y="189.5" width="40" height="40" as="geometry" />
        </mxCell>
        <mxCell id="Fr98qobzcK0LU_zISkJZ-80" style="edgeStyle=none;rounded=0;orthogonalLoop=1;jettySize=auto;html=1;fontSize=10;endArrow=none;endFill=0;entryX=0;entryY=0.5;entryDx=0;entryDy=0;exitX=0.563;exitY=0.485;exitDx=0;exitDy=0;exitPerimeter=0;" parent="1" edge="1">
          <mxGeometry relative="1" as="geometry">
            <mxPoint x="960" y="209.36" as="targetPoint" />
            <mxPoint x="920" y="209.36" as="sourcePoint" />
          </mxGeometry>
        </mxCell>
        <mxCell id="Fr98qobzcK0LU_zISkJZ-81" style="edgeStyle=none;rounded=0;orthogonalLoop=1;jettySize=auto;html=1;fontSize=10;endArrow=none;endFill=0;exitX=1;exitY=0.5;exitDx=0;exitDy=0;" parent="1" source="Fr98qobzcK0LU_zISkJZ-50" target="Fr98qobzcK0LU_zISkJZ-78" edge="1">
          <mxGeometry relative="1" as="geometry">
            <mxPoint x="970" y="219.36" as="targetPoint" />
            <mxPoint x="930" y="219.36" as="sourcePoint" />
          </mxGeometry>
        </mxCell>
        <mxCell id="Fr98qobzcK0LU_zISkJZ-82" style="edgeStyle=none;rounded=0;orthogonalLoop=1;jettySize=auto;html=1;fontSize=10;endArrow=none;endFill=0;exitX=1;exitY=0.5;exitDx=0;exitDy=0;" parent="1" source="Fr98qobzcK0LU_zISkJZ-49" target="Fr98qobzcK0LU_zISkJZ-77" edge="1">
          <mxGeometry relative="1" as="geometry">
            <mxPoint x="970" y="190.5" as="targetPoint" />
            <mxPoint x="930" y="189.5" as="sourcePoint" />
          </mxGeometry>
        </mxCell>
        <mxCell id="Fr98qobzcK0LU_zISkJZ-86" value="RELAY+" style="shape=waypoint;sketch=0;fillStyle=solid;size=6;pointerEvents=1;points=[];fillColor=none;resizable=0;rotatable=0;perimeter=centerPerimeter;snapToPoint=1;verticalAlign=middle;spacingBottom=0;spacingTop=0;fontFamily=Verdana;fontSize=12;labelPosition=right;verticalLabelPosition=middle;align=left;spacingRight=0;spacingLeft=0;spacing=-12;" parent="1" vertex="1">
          <mxGeometry x="380" y="619" width="40" height="40" as="geometry" />
        </mxCell>
        <mxCell id="Fr98qobzcK0LU_zISkJZ-87" value="OUT_RELAY" style="shape=waypoint;sketch=0;fillStyle=solid;size=6;pointerEvents=1;points=[];fillColor=none;resizable=0;rotatable=0;perimeter=centerPerimeter;snapToPoint=1;verticalAlign=middle;spacingBottom=0;spacingTop=0;fontFamily=Verdana;fontSize=12;labelPosition=left;verticalLabelPosition=middle;align=right;spacingRight=0;spacingLeft=0;spacing=-12;" parent="1" vertex="1">
          <mxGeometry x="140" y="570" width="40" height="40" as="geometry" />
        </mxCell>
        <mxCell id="Fr98qobzcK0LU_zISkJZ-88" value="RELAY-" style="shape=waypoint;sketch=0;fillStyle=solid;size=6;pointerEvents=1;points=[];fillColor=none;resizable=0;rotatable=0;perimeter=centerPerimeter;snapToPoint=1;verticalAlign=middle;spacingBottom=0;spacingTop=0;fontFamily=Verdana;fontSize=12;labelPosition=right;verticalLabelPosition=middle;align=left;spacingRight=0;spacingLeft=0;spacing=-12;" parent="1" vertex="1">
          <mxGeometry x="380" y="680" width="40" height="40" as="geometry" />
        </mxCell>
        <mxCell id="Fr98qobzcK0LU_zISkJZ-89" value="1K" style="pointerEvents=1;verticalLabelPosition=middle;shadow=0;dashed=0;align=center;html=1;verticalAlign=middle;shape=mxgraph.electrical.resistors.resistor_1;fontSize=10;labelPosition=center;" parent="1" vertex="1">
          <mxGeometry x="180" y="580" width="90" height="20" as="geometry" />
        </mxCell>
        <mxCell id="Fr98qobzcK0LU_zISkJZ-90" style="edgeStyle=none;rounded=0;orthogonalLoop=1;jettySize=auto;html=1;exitX=0;exitY=0.5;exitDx=0;exitDy=0;fontSize=10;endArrow=none;endFill=0;exitPerimeter=0;" parent="1" source="Fr98qobzcK0LU_zISkJZ-89" target="Fr98qobzcK0LU_zISkJZ-87" edge="1">
          <mxGeometry relative="1" as="geometry">
            <mxPoint x="360" y="388" as="targetPoint" />
            <mxPoint x="330" y="389" as="sourcePoint" />
            <Array as="points">
              <mxPoint x="190" y="590" />
              <mxPoint x="160" y="590" />
            </Array>
          </mxGeometry>
        </mxCell>
        <mxCell id="Fr98qobzcK0LU_zISkJZ-91" value="10K" style="pointerEvents=1;verticalLabelPosition=middle;shadow=0;dashed=0;align=center;html=1;verticalAlign=middle;shape=mxgraph.electrical.resistors.resistor_1;fontSize=10;labelPosition=center;direction=south;" parent="1" vertex="1">
          <mxGeometry x="280" y="480" width="20" height="90" as="geometry" />
        </mxCell>
        <mxCell id="Fr98qobzcK0LU_zISkJZ-92" value="5V" style="verticalLabelPosition=top;verticalAlign=bottom;shape=mxgraph.electrical.signal_sources.vdd;shadow=0;dashed=0;align=center;strokeWidth=1;fontSize=10;html=1;flipV=1;glass=0;fontColor=#000000;fillColor=none;" parent="1" vertex="1">
          <mxGeometry x="280" y="440" width="20" height="20" as="geometry" />
        </mxCell>
        <mxCell id="Fr98qobzcK0LU_zISkJZ-93" style="edgeStyle=none;rounded=0;orthogonalLoop=1;jettySize=auto;html=1;fontSize=10;endArrow=none;endFill=0;entryX=0;entryY=0.5;entryDx=0;entryDy=0;entryPerimeter=0;" parent="1" target="Fr98qobzcK0LU_zISkJZ-91" edge="1">
          <mxGeometry relative="1" as="geometry">
            <mxPoint x="290" y="330" as="targetPoint" />
            <mxPoint x="290" y="460" as="sourcePoint" />
          </mxGeometry>
        </mxCell>
        <mxCell id="Fr98qobzcK0LU_zISkJZ-94" style="edgeStyle=none;rounded=0;orthogonalLoop=1;jettySize=auto;html=1;fontSize=10;endArrow=none;endFill=0;entryX=1;entryY=0.5;entryDx=0;entryDy=0;entryPerimeter=0;exitX=1;exitY=0.5;exitDx=0;exitDy=0;exitPerimeter=0;" parent="1" source="Fr98qobzcK0LU_zISkJZ-91" target="Fr98qobzcK0LU_zISkJZ-89" edge="1">
          <mxGeometry relative="1" as="geometry">
            <mxPoint x="300" y="490" as="targetPoint" />
            <mxPoint x="300" y="470" as="sourcePoint" />
            <Array as="points">
              <mxPoint x="290" y="590" />
            </Array>
          </mxGeometry>
        </mxCell>
        <mxCell id="Fr98qobzcK0LU_zISkJZ-95" value="" style="verticalLabelPosition=bottom;shadow=0;dashed=0;align=center;html=1;verticalAlign=top;shape=mxgraph.electrical.mosfets1.p-channel_mosfet_1;flipV=1;" parent="1" vertex="1">
          <mxGeometry x="320" y="579" width="40" height="40" as="geometry" />
        </mxCell>
        <mxCell id="Fr98qobzcK0LU_zISkJZ-96" style="edgeStyle=none;rounded=0;orthogonalLoop=1;jettySize=auto;html=1;fontSize=10;endArrow=none;endFill=0;entryX=1;entryY=0.5;entryDx=0;entryDy=0;entryPerimeter=0;exitX=0;exitY=0.72;exitDx=0;exitDy=0;exitPerimeter=0;" parent="1" source="Fr98qobzcK0LU_zISkJZ-95" target="Fr98qobzcK0LU_zISkJZ-89" edge="1">
          <mxGeometry relative="1" as="geometry">
            <mxPoint x="280" y="600" as="targetPoint" />
            <mxPoint x="300" y="580" as="sourcePoint" />
            <Array as="points">
              <mxPoint x="290" y="590" />
            </Array>
          </mxGeometry>
        </mxCell>
        <mxCell id="Fr98qobzcK0LU_zISkJZ-97" style="edgeStyle=none;rounded=0;orthogonalLoop=1;jettySize=auto;html=1;fontSize=10;endArrow=none;endFill=0;entryX=0.7;entryY=1;entryDx=0;entryDy=0;entryPerimeter=0;" parent="1" target="Fr98qobzcK0LU_zISkJZ-95" edge="1">
          <mxGeometry relative="1" as="geometry">
            <mxPoint x="347.0000000000001" y="579" as="targetPoint" />
            <mxPoint x="290" y="470" as="sourcePoint" />
            <Array as="points">
              <mxPoint x="349" y="470" />
            </Array>
          </mxGeometry>
        </mxCell>
        <mxCell id="Fr98qobzcK0LU_zISkJZ-99" value="" style="pointerEvents=1;fillColor=strokeColor;verticalLabelPosition=middle;shadow=0;dashed=0;align=left;html=1;verticalAlign=middle;shape=mxgraph.electrical.diodes.schottky_diode;direction=north;fontSize=10;labelPosition=right;" parent="1" vertex="1">
          <mxGeometry x="338" y="650" width="20" height="40" as="geometry" />
        </mxCell>
        <mxCell id="Fr98qobzcK0LU_zISkJZ-101" value="" style="pointerEvents=1;verticalLabelPosition=bottom;shadow=0;dashed=0;align=center;html=1;verticalAlign=top;shape=mxgraph.electrical.signal_sources.protective_earth;" parent="1" vertex="1">
          <mxGeometry x="338" y="720" width="20" height="20" as="geometry" />
        </mxCell>
        <mxCell id="Fr98qobzcK0LU_zISkJZ-107" value="1K" style="pointerEvents=1;verticalLabelPosition=middle;shadow=0;dashed=0;align=center;html=1;verticalAlign=middle;shape=mxgraph.electrical.resistors.resistor_1;fontSize=10;labelPosition=center;" parent="1" vertex="1">
          <mxGeometry x="230" y="630" width="90" height="20" as="geometry" />
        </mxCell>
        <mxCell id="Fr98qobzcK0LU_zISkJZ-110" style="edgeStyle=none;rounded=0;orthogonalLoop=1;jettySize=auto;html=1;fontSize=10;endArrow=none;endFill=0;entryX=1;entryY=0.5;entryDx=0;entryDy=0;entryPerimeter=0;" parent="1" edge="1">
          <mxGeometry relative="1" as="geometry">
            <mxPoint x="320" y="640" as="targetPoint" />
            <mxPoint x="400" y="639" as="sourcePoint" />
          </mxGeometry>
        </mxCell>
        <mxCell id="Fr98qobzcK0LU_zISkJZ-111" style="edgeStyle=none;rounded=0;orthogonalLoop=1;jettySize=auto;html=1;fontSize=10;endArrow=none;endFill=0;entryX=0.7;entryY=0;entryDx=0;entryDy=0;entryPerimeter=0;exitX=1;exitY=0.5;exitDx=0;exitDy=0;exitPerimeter=0;" parent="1" source="Fr98qobzcK0LU_zISkJZ-99" target="Fr98qobzcK0LU_zISkJZ-95" edge="1">
          <mxGeometry relative="1" as="geometry">
            <mxPoint x="330" y="649" as="targetPoint" />
            <mxPoint x="410" y="649" as="sourcePoint" />
          </mxGeometry>
        </mxCell>
        <mxCell id="Fr98qobzcK0LU_zISkJZ-112" style="edgeStyle=none;rounded=0;orthogonalLoop=1;jettySize=auto;html=1;fontSize=10;endArrow=none;endFill=0;entryX=0;entryY=0.5;entryDx=0;entryDy=0;entryPerimeter=0;exitX=0;exitY=0.57;exitDx=0;exitDy=0;exitPerimeter=0;" parent="1" source="Fr98qobzcK0LU_zISkJZ-113" target="Fr98qobzcK0LU_zISkJZ-107" edge="1">
          <mxGeometry relative="1" as="geometry">
            <mxPoint x="210" y="640" as="targetPoint" />
            <mxPoint x="210" y="671" as="sourcePoint" />
            <Array as="points">
              <mxPoint x="220" y="640" />
            </Array>
          </mxGeometry>
        </mxCell>
        <mxCell id="Fr98qobzcK0LU_zISkJZ-113" value="" style="verticalLabelPosition=bottom;shadow=0;dashed=0;align=center;html=1;verticalAlign=top;shape=mxgraph.electrical.opto_electronics.led_2;pointerEvents=1;direction=south;" parent="1" vertex="1">
          <mxGeometry x="211" y="650" width="20" height="40" as="geometry" />
        </mxCell>
        <mxCell id="Fr98qobzcK0LU_zISkJZ-114" style="edgeStyle=none;rounded=0;orthogonalLoop=1;jettySize=auto;html=1;fontSize=10;endArrow=none;endFill=0;entryX=1;entryY=0.57;entryDx=0;entryDy=0;entryPerimeter=0;" parent="1" target="Fr98qobzcK0LU_zISkJZ-113" edge="1">
          <mxGeometry relative="1" as="geometry">
            <mxPoint x="330" y="650" as="targetPoint" />
            <mxPoint x="400" y="700" as="sourcePoint" />
            <Array as="points">
              <mxPoint x="220" y="700" />
            </Array>
          </mxGeometry>
        </mxCell>
        <mxCell id="Fr98qobzcK0LU_zISkJZ-115" style="edgeStyle=none;rounded=0;orthogonalLoop=1;jettySize=auto;html=1;fontSize=10;endArrow=none;endFill=0;entryX=0.5;entryY=0;entryDx=0;entryDy=0;entryPerimeter=0;exitX=0;exitY=0.5;exitDx=0;exitDy=0;exitPerimeter=0;" parent="1" source="Fr98qobzcK0LU_zISkJZ-99" target="Fr98qobzcK0LU_zISkJZ-101" edge="1">
          <mxGeometry relative="1" as="geometry">
            <mxPoint x="358" y="629" as="targetPoint" />
            <mxPoint x="358" y="660" as="sourcePoint" />
          </mxGeometry>
        </mxCell>
        <mxCell id="Fr98qobzcK0LU_zISkJZ-134" value="10 uF" style="pointerEvents=1;verticalLabelPosition=middle;shadow=0;dashed=0;align=left;html=1;verticalAlign=middle;shape=mxgraph.electrical.capacitors.capacitor_1;fontSize=10;labelPosition=right;direction=north;spacing=2;spacingTop=0;spacingBottom=0;" parent="1" vertex="1">
          <mxGeometry x="345" y="269.5" width="10" height="30" as="geometry" />
        </mxCell>
        <mxCell id="Fr98qobzcK0LU_zISkJZ-135" style="edgeStyle=none;rounded=0;orthogonalLoop=1;jettySize=auto;html=1;fontSize=10;endArrow=none;endFill=0;entryX=0.075;entryY=0.498;entryDx=0;entryDy=0;entryPerimeter=0;" parent="1" target="Fr98qobzcK0LU_zISkJZ-134" edge="1">
          <mxGeometry relative="1" as="geometry">
            <mxPoint x="350" y="300" as="targetPoint" />
            <mxPoint x="280" y="310" as="sourcePoint" />
            <Array as="points">
              <mxPoint x="350" y="310" />
            </Array>
          </mxGeometry>
        </mxCell>
        <mxCell id="Fr98qobzcK0LU_zISkJZ-136" style="edgeStyle=none;rounded=0;orthogonalLoop=1;jettySize=auto;html=1;exitX=1;exitY=0.5;exitDx=0;exitDy=0;fontSize=10;endArrow=none;endFill=0;exitPerimeter=0;" parent="1" source="Fr98qobzcK0LU_zISkJZ-134" edge="1">
          <mxGeometry relative="1" as="geometry">
            <mxPoint x="350" y="260" as="targetPoint" />
            <mxPoint x="330" y="270" as="sourcePoint" />
            <Array as="points" />
          </mxGeometry>
        </mxCell>
        <mxCell id="Fr98qobzcK0LU_zISkJZ-85" value="LED" style="verticalLabelPosition=middle;shadow=0;dashed=0;align=left;fillColor=strokeColor;html=1;verticalAlign=middle;strokeWidth=1;shape=mxgraph.electrical.miscellaneous.mf_contact_2;labelPosition=right;" parent="1" vertex="1">
          <mxGeometry x="910" y="505" width="60" height="10" as="geometry" />
        </mxCell>
        <mxCell id="Fr98qobzcK0LU_zISkJZ-116" value="OUT_ACTIVITY_LED" style="shape=waypoint;sketch=0;fillStyle=solid;size=6;pointerEvents=1;points=[];fillColor=none;resizable=0;rotatable=0;perimeter=centerPerimeter;snapToPoint=1;verticalAlign=middle;spacingBottom=0;spacingTop=0;fontFamily=Verdana;fontSize=12;labelPosition=left;verticalLabelPosition=middle;align=right;spacingRight=0;spacingLeft=0;spacing=-12;" parent="1" vertex="1">
          <mxGeometry x="720" y="490" width="40" height="40" as="geometry" />
        </mxCell>
        <mxCell id="Fr98qobzcK0LU_zISkJZ-117" value="1K" style="pointerEvents=1;verticalLabelPosition=middle;shadow=0;dashed=0;align=center;html=1;verticalAlign=middle;shape=mxgraph.electrical.resistors.resistor_1;fontSize=10;labelPosition=center;" parent="1" vertex="1">
          <mxGeometry x="780" y="500" width="90" height="20" as="geometry" />
        </mxCell>
        <mxCell id="Fr98qobzcK0LU_zISkJZ-118" value="1K" style="pointerEvents=1;verticalLabelPosition=middle;shadow=0;dashed=0;align=center;html=1;verticalAlign=middle;shape=mxgraph.electrical.resistors.resistor_1;fontSize=10;labelPosition=center;" parent="1" vertex="1">
          <mxGeometry x="780" y="540" width="90" height="20" as="geometry" />
        </mxCell>
        <mxCell id="Fr98qobzcK0LU_zISkJZ-119" style="edgeStyle=none;rounded=0;orthogonalLoop=1;jettySize=auto;html=1;fontSize=10;endArrow=none;endFill=0;exitX=0;exitY=0.5;exitDx=0;exitDy=0;exitPerimeter=0;" parent="1" source="Fr98qobzcK0LU_zISkJZ-117" target="Fr98qobzcK0LU_zISkJZ-116" edge="1">
          <mxGeometry relative="1" as="geometry">
            <mxPoint x="700" y="550.5" as="targetPoint" />
            <mxPoint x="780" y="549.5" as="sourcePoint" />
          </mxGeometry>
        </mxCell>
        <mxCell id="Fr98qobzcK0LU_zISkJZ-120" style="edgeStyle=none;rounded=0;orthogonalLoop=1;jettySize=auto;html=1;fontSize=10;endArrow=none;endFill=0;exitX=0;exitY=0.5;exitDx=0;exitDy=0;exitPerimeter=0;" parent="1" source="Fr98qobzcK0LU_zISkJZ-127" edge="1">
          <mxGeometry relative="1" as="geometry">
            <mxPoint x="740" y="470" as="targetPoint" />
            <mxPoint x="800" y="475" as="sourcePoint" />
          </mxGeometry>
        </mxCell>
        <mxCell id="Fr98qobzcK0LU_zISkJZ-121" style="edgeStyle=none;rounded=0;orthogonalLoop=1;jettySize=auto;html=1;fontSize=10;endArrow=none;endFill=0;exitX=0;exitY=0.5;exitDx=0;exitDy=0;exitPerimeter=0;" parent="1" source="Fr98qobzcK0LU_zISkJZ-118" edge="1">
          <mxGeometry relative="1" as="geometry">
            <mxPoint x="770" y="510" as="targetPoint" />
            <mxPoint x="810" y="490" as="sourcePoint" />
            <Array as="points">
              <mxPoint x="770" y="550" />
            </Array>
          </mxGeometry>
        </mxCell>
        <mxCell id="Fr98qobzcK0LU_zISkJZ-122" value="" style="verticalLabelPosition=bottom;shadow=0;dashed=0;align=center;html=1;verticalAlign=top;shape=mxgraph.electrical.opto_electronics.led_2;pointerEvents=1;direction=south;" parent="1" vertex="1">
          <mxGeometry x="881" y="570" width="20" height="40" as="geometry" />
        </mxCell>
        <mxCell id="Fr98qobzcK0LU_zISkJZ-123" value="" style="pointerEvents=1;verticalLabelPosition=bottom;shadow=0;dashed=0;align=center;html=1;verticalAlign=top;shape=mxgraph.electrical.signal_sources.protective_earth;" parent="1" vertex="1">
          <mxGeometry x="880" y="630" width="20" height="20" as="geometry" />
        </mxCell>
        <mxCell id="Fr98qobzcK0LU_zISkJZ-124" style="edgeStyle=none;rounded=0;orthogonalLoop=1;jettySize=auto;html=1;fontSize=10;endArrow=none;endFill=0;exitX=1;exitY=0.5;exitDx=0;exitDy=0;exitPerimeter=0;entryX=0;entryY=0.57;entryDx=0;entryDy=0;entryPerimeter=0;" parent="1" source="Fr98qobzcK0LU_zISkJZ-118" target="Fr98qobzcK0LU_zISkJZ-122" edge="1">
          <mxGeometry relative="1" as="geometry">
            <mxPoint x="890" y="550" as="targetPoint" />
            <mxPoint x="920" y="560" as="sourcePoint" />
            <Array as="points">
              <mxPoint x="890" y="550" />
            </Array>
          </mxGeometry>
        </mxCell>
        <mxCell id="Fr98qobzcK0LU_zISkJZ-125" style="edgeStyle=none;rounded=0;orthogonalLoop=1;jettySize=auto;html=1;fontSize=10;endArrow=none;endFill=0;exitX=1;exitY=0.57;exitDx=0;exitDy=0;exitPerimeter=0;entryX=0.5;entryY=0;entryDx=0;entryDy=0;entryPerimeter=0;" parent="1" source="Fr98qobzcK0LU_zISkJZ-122" target="Fr98qobzcK0LU_zISkJZ-123" edge="1">
          <mxGeometry relative="1" as="geometry">
            <mxPoint x="900" y="560" as="targetPoint" />
            <mxPoint x="880" y="560" as="sourcePoint" />
          </mxGeometry>
        </mxCell>
        <mxCell id="Fr98qobzcK0LU_zISkJZ-126" style="edgeStyle=none;rounded=0;orthogonalLoop=1;jettySize=auto;html=1;fontSize=10;endArrow=none;endFill=0;entryX=1;entryY=0.5;entryDx=0;entryDy=0;entryPerimeter=0;" parent="1" target="Fr98qobzcK0LU_zISkJZ-117" edge="1">
          <mxGeometry relative="1" as="geometry">
            <mxPoint x="730" y="491" as="targetPoint" />
            <mxPoint x="910" y="510" as="sourcePoint" />
          </mxGeometry>
        </mxCell>
        <mxCell id="Fr98qobzcK0LU_zISkJZ-127" value="SWITCH" style="verticalLabelPosition=middle;shadow=0;dashed=0;align=left;fillColor=strokeColor;html=1;verticalAlign=middle;strokeWidth=1;shape=mxgraph.electrical.miscellaneous.mf_contact_2;labelPosition=right;" parent="1" vertex="1">
          <mxGeometry x="910" y="465" width="60" height="10" as="geometry" />
        </mxCell>
        <mxCell id="Fr98qobzcK0LU_zISkJZ-128" value="GND" style="verticalLabelPosition=middle;shadow=0;dashed=0;align=left;fillColor=strokeColor;html=1;verticalAlign=middle;strokeWidth=1;shape=mxgraph.electrical.miscellaneous.mf_contact_2;labelPosition=right;" parent="1" vertex="1">
          <mxGeometry x="910" y="425" width="60" height="10" as="geometry" />
        </mxCell>
        <mxCell id="Fr98qobzcK0LU_zISkJZ-129" value="IN_SWITCH" style="shape=waypoint;sketch=0;fillStyle=solid;size=6;pointerEvents=1;points=[];fillColor=none;resizable=0;rotatable=0;perimeter=centerPerimeter;snapToPoint=1;verticalAlign=middle;spacingBottom=0;spacingTop=0;fontFamily=Verdana;fontSize=12;labelPosition=left;verticalLabelPosition=middle;align=right;spacingRight=0;spacingLeft=0;spacing=-12;" parent="1" vertex="1">
          <mxGeometry x="720" y="450" width="40" height="40" as="geometry" />
        </mxCell>
        <mxCell id="Fr98qobzcK0LU_zISkJZ-130" value="" style="pointerEvents=1;verticalLabelPosition=bottom;shadow=0;dashed=0;align=center;html=1;verticalAlign=top;shape=mxgraph.electrical.signal_sources.protective_earth;" parent="1" vertex="1">
          <mxGeometry x="890" y="440" width="20" height="20" as="geometry" />
        </mxCell>
        <mxCell id="Fr98qobzcK0LU_zISkJZ-131" style="edgeStyle=none;rounded=0;orthogonalLoop=1;jettySize=auto;html=1;fontSize=10;endArrow=none;endFill=0;entryX=0.5;entryY=0;entryDx=0;entryDy=0;entryPerimeter=0;exitX=0;exitY=0.5;exitDx=0;exitDy=0;exitPerimeter=0;" parent="1" source="Fr98qobzcK0LU_zISkJZ-128" target="Fr98qobzcK0LU_zISkJZ-130" edge="1">
          <mxGeometry relative="1" as="geometry">
            <mxPoint x="730" y="486" as="targetPoint" />
            <mxPoint x="810" y="485" as="sourcePoint" />
            <Array as="points">
              <mxPoint x="900" y="430" />
            </Array>
          </mxGeometry>
        </mxCell>
        <mxCell id="_KS72kJeJMdXlC_sL613-1" value="" style="verticalLabelPosition=middle;shadow=0;dashed=0;align=right;fillColor=strokeColor;html=1;verticalAlign=middle;strokeWidth=1;shape=mxgraph.electrical.miscellaneous.mf_contact_2;labelPosition=left;direction=west;" vertex="1" parent="1">
          <mxGeometry x="60" y="147" width="50" height="10" as="geometry" />
        </mxCell>
        <mxCell id="_KS72kJeJMdXlC_sL613-3" value="" style="verticalLabelPosition=middle;shadow=0;dashed=0;align=right;fillColor=strokeColor;html=1;verticalAlign=middle;strokeWidth=1;shape=mxgraph.electrical.miscellaneous.mf_contact_2;labelPosition=left;direction=west;" vertex="1" parent="1">
          <mxGeometry x="60" y="123.5" width="50" height="10" as="geometry" />
        </mxCell>
        <mxCell id="_KS72kJeJMdXlC_sL613-4" value="9-60V" style="text;html=1;strokeColor=none;fillColor=none;align=center;verticalAlign=middle;whiteSpace=wrap;rounded=0;" vertex="1" parent="1">
          <mxGeometry x="50" y="121" width="40" height="40" as="geometry" />
        </mxCell>
        <mxCell id="_KS72kJeJMdXlC_sL613-6" value="" style="verticalLabelPosition=middle;shadow=0;dashed=0;align=right;fillColor=strokeColor;html=1;verticalAlign=middle;strokeWidth=1;shape=mxgraph.electrical.miscellaneous.mf_contact_2;labelPosition=left;direction=west;flipH=1;" vertex="1" parent="1">
          <mxGeometry x="390" y="139" width="50" height="10" as="geometry" />
        </mxCell>
        <mxCell id="_KS72kJeJMdXlC_sL613-7" value="" style="verticalLabelPosition=middle;shadow=0;dashed=0;align=right;fillColor=strokeColor;html=1;verticalAlign=middle;strokeWidth=1;shape=mxgraph.electrical.miscellaneous.mf_contact_2;labelPosition=left;direction=west;flipH=1;" vertex="1" parent="1">
          <mxGeometry x="390" y="115.5" width="50" height="10" as="geometry" />
        </mxCell>
        <mxCell id="_KS72kJeJMdXlC_sL613-8" value="9-60V" style="text;html=1;strokeColor=none;fillColor=none;align=center;verticalAlign=middle;whiteSpace=wrap;rounded=0;flipV=1;flipH=1;" vertex="1" parent="1">
          <mxGeometry x="410" y="112" width="40" height="40" as="geometry" />
        </mxCell>
      </root>
    </mxGraphModel>
  </diagram>
</mxfile>
